<?xml version="1.0" encoding="utf-8"?>
<!-- Generator: Adobe Illustrator 26.0.3, SVG Export Plug-In . SVG Version: 6.00 Build 0)  -->
<svg version="1.1" id="Layer_1" xmlns="http://www.w3.org/2000/svg" xmlns:xlink="http://www.w3.org/1999/xlink" x="0px" y="0px"
	 viewBox="0 0 2000 2000" style="enable-background:new 0 0 2000 2000;" xml:space="preserve">
<style type="text/css">
	.st0{fill:#00428A;}
</style>
<g>
	<g>
		<path class="st0" d="M997.95,1465.29c-105.48,3.25-219.13-67.02-259.34-182.35c-5.76-16.51-12.6-31.63-25.71-43.88
			c-12.84-12.01-20.91-27.6-24.72-44.58c-3.78-16.83-12.12-28.32-26.61-38.4c-28.79-20.03-45.95-48.46-47.61-84.26
			c-0.68-14.76-6.88-24.2-18.23-33.39c-50.06-40.54-53.74-104.2-9.17-150.68c8.19-8.54,14.65-15.54,13.41-29.29
			c-3.46-38.39,9.56-71.71,37.96-97.84c13.18-12.12,20.57-24.63,23.87-43.21c9.52-53.59,41.6-89.13,95.32-102.66
			c16.18-4.08,29.54-9.33,40.05-24.24c45.28-64.23,121.5-74.02,182.5-24.69c3.7,2.99,7.32,6.21,10.45,9.78
			c7.63,8.7,14.5,6.78,21.75-0.57c9.4-9.53,19.16-18.59,31.11-25.1c53.5-29.13,119.79-15.09,155.99,35.18
			c11.44,15.89,24.31,24.62,43.2,29.2c55.53,13.45,88.52,51,96.06,107.85c1.75,13.21,6.17,23.56,16.34,32
			c32.36,26.86,46.98,61.86,46.24,103.5c-0.22,12.26,3.86,22.11,12.56,30.74c47.75,47.31,36.75,113.82-7.32,148.56
			c-11.37,8.96-17.55,19.48-18.9,33.67c-3.79,39.97-23.89,69.92-57.52,90.99c-8.8,5.51-13.45,12.63-15.33,22.77
			c-4.66,25.16-16.23,46.94-35.14,64.28c-9.79,8.98-12.71,20.99-17.11,32.54c-37.36,98.03-107.74,157.52-209.93,180.11
			C1034.19,1465.29,1016.09,1465.06,997.95,1465.29z M1319.45,1114.31c15.69-9.82,20.08-23.35,22.48-37.49
			c3.66-21.57,0.55-42.3-13.29-59.84c-11.32-14.35-6.93-27.45,1.04-33.05c11.8-8.27,20.96-2.98,30.49,5.43
			c18.81,16.61,30.86,13.03,37.66-11.14c2.27-8.09,2.52-17.03,2.17-25.52c-0.52-12.77-3.68-26.4-15.9-31.78
			c-12.34-5.43-17.56,8.67-24.66,15.31c-48.91,45.7-121.79,56.21-181.17,25.37c-14.55-7.56-27.49-17.35-38.31-29.74
			c-7.79-8.93-10.42-18.66-1.29-28.09c8.65-8.94,18.73-8.55,28.53-1.67c5.46,3.83,10.24,8.65,15.68,12.52
			c47.09,33.51,113.43,27.65,152.17-13.33c31.77-33.61,29.95-80.93-4.33-112.22c-33.99-31.03-79.41-23.76-101.7,16.39
			c-3.24,5.83-5.24,12.39-8.8,17.99c-5.15,8.09-13.08,11.21-22.36,8.33c-9.32-2.89-13.49-10.32-14.12-19.6
			c-0.53-7.85,2.6-14.98,5.73-21.99c14.22-31.84,38.9-51.37,72.07-60.58c7.34-2.04,14.96-3.22,22.53-4.2
			c8.2-1.07,12.43-4.45,9.77-13.25c-8.02-26.64-25.37-44.56-51.42-53.74c-9.99-3.52-16.64,0.67-18.59,11.52
			c-1.18,6.58-2.26,13.23-4.14,19.62c-11.54,39.14-35.64,67.22-74.15,81.76c-27.72,10.46-52.5,5.49-73.59-16.03
			c-34.69-35.4-23.05-81.32,6.7-112.81c10.97-11.61,24.28-13.33,33.37-6.4c10.15,7.74,9.73,20.31-1.24,35.47
			c-1.12,1.54-2.56,2.85-3.72,4.37c-16.66,22-17.72,37.51-3.5,50.75c11.95,11.13,30.09,8.55,49.18-6.98
			c24.86-20.23,35.16-58.25,23.99-88.61c-12.28-33.39-45.71-55.64-80.39-53.51c-33,2.03-62.58,25.72-71.46,57.41
			c-3.4,12.15-2.59,24.67-2.6,37.08c-0.05,110.92-0.01,221.84-0.08,332.77c-0.01,9.55,0.19,19.2-1.08,28.62
			c-1.68,12.49-8.2,22.07-22.07,21.95c-12.54-0.11-18.69-9.32-20.43-20.41c-1.77-11.25-2.17-22.81-2.18-34.24
			c-0.15-111.88-0.08-223.76-0.12-335.64c0-16.25,0.4-32.5-8.57-47.28c-16.94-27.92-50.12-44.26-80.3-39.07
			c-36.04,6.2-62.05,32.3-68.07,68.31c-5.06,30.27,11.36,63.68,39.37,80.12c15.09,8.85,26.6,8.64,36.95-0.7
			c10.92-9.85,13.68-24.55,5.95-39.31c-3.93-7.5-9.99-13.9-15.19-20.71c-6.96-9.1-10.65-18.51-1.79-28.38
			c7.36-8.21,19.83-8.31,31.11,0.53c17.21,13.48,28.44,31.22,31.44,52.97c3.91,28.34-2.77,53.83-26.98,71.25
			c-24.93,17.94-51.43,17.36-78.49,3.36c-31.72-16.4-50.74-42.72-61.47-75.85c-2.35-7.26-3.79-14.81-5.71-22.22
			c-2.46-9.48-8.96-12.05-17.54-9.2c-24.29,8.07-40.3,24.88-49.21,48.54c-3.2,8.5-1.02,15.07,8.83,17.34
			c8.39,1.93,16.87,3.52,25.14,5.86c29.08,8.22,51.17,25.39,64.88,52.51c3.42,6.76,6.03,14.11,7.77,21.49
			c2.63,11.11,0.85,21.57-11.02,26.43c-11.81,4.83-20.34-0.76-26.11-11.11c-3.25-5.84-5.7-12.12-8.97-17.95
			c-15.74-28-46.26-38.91-76.13-27.39c-55.42,21.37-66.58,95.2-20.26,134.05c42.31,35.49,100.66,37.3,145.87,4.64
			c6.94-5.01,13.84-10.31,21.44-14.11c7.5-3.75,15.07-1.59,20.93,4.51c6.64,6.92,8.06,14.95,3.79,23.7
			c-3.03,6.2-8.31,10.33-13.47,14.64c-61.7,51.53-150.14,49.45-209.82-5c-2.82-2.58-5.33-5.53-8.31-7.9
			c-12.13-9.67-19.54-8.4-27.37,5.38c-9.83,17.3-8.58,34.87,0.63,52.02c9.72,18.11,15.64,18.9,31.9,4.79
			c2.88-2.5,5.52-5.37,8.68-7.45c7.85-5.15,16.16-6.53,23.79,0.11c7.22,6.27,9.46,14.56,5.45,23.35
			c-3.55,7.8-8.66,14.87-12.41,22.59c-14.8,30.5-9.06,60.06,15.58,81.92c1.34-1.19,3.5-2.16,3.9-3.61
			c9.58-35.03,32.58-48.19,68.43-47.07c54.45,1.71,109,0.8,163.5,0.29c22.03-0.21,41.02,4.01,56.73,21.45
			c12.04,13.37,45.88,13.96,56.56,0.89c15.09-18.48,34.07-22.49,56.1-22.32c54.5,0.43,109.01,0.04,163.51,0.15
			C1294.34,1061.78,1303.63,1068.38,1319.45,1114.31z M1008.82,1424.13c80.38-4.63,151.83-41,196.96-121.64
			c12.45-22.24,9.65-26.48-15.18-27.11c-21.93-0.55-43.96,0.91-65.8-0.58c-44.55-3.03-77.41-24.11-95.93-65.83
			c-6.38-14.36-7.48-29.33-7.98-44.69c-0.69-20.85-4.53-25.94-17.9-26.65c-13.93-0.75-18.65,4.37-21.64,23.57
			c-0.59,3.77-0.85,7.59-1.46,11.35c-10.97,67.65-50.91,102.07-119.18,102.66c-20.03,0.17-40.09-0.45-60.09,0.46
			c-14.79,0.68-17.14,4.95-12.02,17.94c1.74,4.41,4.07,8.66,6.65,12.64C843.14,1380.13,909.31,1422.32,1008.82,1424.13z
			 M1168.73,1103.5c0,0.02,0,0.04,0,0.06c-27.69,0-55.39-0.56-83.06,0.2c-18.29,0.5-21.55,4.11-22.57,22.13
			c-0.76,13.32-0.73,26.76,0.04,40.08c2.13,36.77,23.34,60.98,59.69,65.77c29.36,3.87,59.24,3.79,88.59,0.26
			c38.56-4.64,60.54-30.64,62.03-69.86c0.4-10.49,0.49-21.02,0-31.5c-1.05-22.63-4.48-26.4-27.4-26.99
			C1220.3,1102.99,1194.51,1103.5,1168.73,1103.5z M830.67,1232.8c0-0.07,0-0.15,0-0.22c15.22,0,30.59,1.42,45.62-0.29
			c31.57-3.59,52.56-22.16,57.85-50.75c3.65-19.72,2.01-39.86,1.23-59.82c-0.44-11.33-6.64-17.75-18.02-17.79
			c-57.1-0.19-114.2-0.2-171.31-0.12c-14.11,0.02-20.8,7.87-20.67,21.63c0.11,12.36,0.59,24.71,0.92,37.07
			c1.07,40.26,24.13,65.85,64.44,70.08C803.91,1233.96,817.35,1232.8,830.67,1232.8z"/>
		<path class="st0" d="M947.17,939.03c-1.9,29.29-10.59,56.12-28.07,79.73c-3.32,4.48-7.78,8.45-12.46,11.52
			c-6.89,4.53-14.46,4.59-21.36-0.47c-7.89-5.78-10.41-13.89-6.84-22.7c2.82-6.97,7.59-13.12,11.32-19.74
			c23.07-40.95,15-88.06-20.27-119.1c-5.67-4.99-12.09-9.56-16.4-15.59c-5.44-7.61-4.7-16.41,1.5-23.77
			c5.47-6.5,12.93-8.04,20.73-5.15c5.28,1.96,10.59,4.5,15.08,7.87C926.15,858.49,943.86,894.99,947.17,939.03z"/>
		<path class="st0" d="M1055.28,936.84c-0.8-39.99,15.63-72.2,45.08-98.18c6.36-5.61,13.94-10.13,21.55-13.96
			c9.77-4.9,18.93-2.31,25.54,6.19c7.09,9.12,4.57,18.06-2.9,25.72c-3.97,4.08-8.75,7.37-13.14,11.04
			c-37.05,31.03-45.17,79.24-20.37,121.25c2.91,4.93,6.34,9.57,9.06,14.61c5.26,9.72,3.84,18.62-4.97,25.47
			c-8.79,6.84-17.87,5.57-26.35-0.89c-6.94-5.29-11.9-12.31-16.28-19.8C1060.13,987.1,1055.01,966.04,1055.28,936.84z"/>
		<path class="st0" d="M995.71,1367.75c-8.46-1.11-17.24-1.17-25.31-3.57c-11.09-3.3-17.72-11.71-16.9-23.62
			c0.87-12.8,11.21-13.84,21.02-14.27c9.53-0.41,19.08-0.47,28.61-0.35c18.12,0.22,34.05-3.95,44.47-20.49
			c3.09-4.9,7.31-8.82,12.83-11c7.44-2.95,15.33-3.82,21.96,0.88c7.53,5.34,5.48,13.52,3.44,20.99
			c-6.06,22.2-21.54,35.61-42.24,43.27C1028.29,1365.24,1012.25,1367.88,995.71,1367.75z"/>
		<path class="st0" d="M832.25,1123.88c-2.28,0-4.5,0.23-6.68,0.55c4.72,4.63,7.66,11.07,7.66,18.21
			c0,14.09-11.42,25.51-25.51,25.51c-7.66,0-14.52-3.4-19.2-8.74c-0.61,2.95-0.94,6.01-0.94,9.15c0,24.68,20,44.68,44.68,44.68
			s44.68-20,44.68-44.68C876.93,1143.88,856.93,1123.88,832.25,1123.88z"/>
		<path class="st0" d="M1167.93,1123.88c2.28,0,4.5,0.23,6.68,0.55c-4.72,4.63-7.66,11.07-7.66,18.21
			c0,14.09,11.42,25.51,25.51,25.51c7.66,0,14.52-3.4,19.2-8.74c0.61,2.95,0.94,6.01,0.94,9.15c0,24.68-20,44.68-44.68,44.68
			c-24.68,0-44.68-20-44.68-44.68C1123.25,1143.88,1143.25,1123.88,1167.93,1123.88z"/>
	</g>
</g>
</svg>
