<?xml version="1.0" encoding="utf-8"?>
<!-- Generator: Adobe Illustrator 26.0.3, SVG Export Plug-In . SVG Version: 6.00 Build 0)  -->
<svg version="1.1" id="Layer_1" xmlns="http://www.w3.org/2000/svg" xmlns:xlink="http://www.w3.org/1999/xlink" x="0px" y="0px"
	 viewBox="0 0 2000 2000" style="enable-background:new 0 0 2000 2000;" xml:space="preserve">
<style type="text/css">
	.st0{fill:#00428A;}
	.st1{fill:#90CAF9;}
</style>
<g>
	<g>
		<path class="st0" d="M555.56,1130.65c-29.62,0.91-61.53-18.82-72.82-51.2c-1.62-4.64-3.54-8.88-7.22-12.32
			c-3.61-3.37-5.87-7.75-6.94-12.52c-1.06-4.73-3.4-7.95-7.47-10.78c-8.09-5.62-12.9-13.61-13.37-23.66
			c-0.19-4.15-1.93-6.79-5.12-9.38c-14.06-11.38-15.09-29.26-2.57-42.31c2.3-2.4,4.11-4.36,3.76-8.22
			c-0.97-10.78,2.68-20.14,10.66-27.47c3.7-3.4,5.78-6.92,6.7-12.13c2.67-15.05,11.68-25.03,26.77-28.83
			c4.54-1.14,8.29-2.62,11.25-6.81c12.72-18.04,34.12-20.78,51.25-6.93c1.04,0.84,2.05,1.74,2.93,2.75c2.14,2.44,4.07,1.9,6.11-0.16
			c2.64-2.68,5.38-5.22,8.74-7.05c15.02-8.18,33.64-4.24,43.8,9.88c3.21,4.46,6.83,6.91,12.13,8.2
			c15.59,3.78,24.86,14.32,26.97,30.28c0.49,3.71,1.73,6.61,4.59,8.99c9.09,7.54,13.19,17.37,12.99,29.06
			c-0.06,3.44,1.08,6.21,3.53,8.63c13.41,13.28,10.32,31.96-2.06,41.72c-3.19,2.52-4.93,5.47-5.31,9.45
			c-1.07,11.22-6.71,19.63-16.15,25.55c-2.47,1.55-3.78,3.55-4.3,6.39c-1.31,7.06-4.56,13.18-9.87,18.05
			c-2.75,2.52-3.57,5.89-4.81,9.14c-10.49,27.53-30.25,44.23-58.95,50.57C565.73,1130.65,560.65,1130.59,555.56,1130.65z
			 M645.84,1032.1c4.4-2.76,5.64-6.56,6.31-10.53c1.03-6.06,0.15-11.88-3.73-16.8c-3.18-4.03-1.95-7.71,0.29-9.28
			c3.31-2.32,5.88-0.84,8.56,1.53c5.28,4.66,8.67,3.66,10.57-3.13c0.64-2.27,0.71-4.78,0.61-7.17c-0.15-3.59-1.03-7.41-4.46-8.92
			c-3.47-1.53-4.93,2.44-6.93,4.3c-13.73,12.83-34.2,15.78-50.87,7.12c-4.09-2.12-7.72-4.87-10.76-8.35
			c-2.19-2.51-2.92-5.24-0.36-7.89c2.43-2.51,5.26-2.4,8.01-0.47c1.53,1.08,2.87,2.43,4.4,3.52c13.22,9.41,31.85,7.76,42.73-3.74
			c8.92-9.44,8.41-22.72-1.22-31.51c-9.54-8.71-22.3-6.67-28.56,4.6c-0.91,1.64-1.47,3.48-2.47,5.05c-1.45,2.27-3.67,3.15-6.28,2.34
			c-2.62-0.81-3.79-2.9-3.96-5.5c-0.15-2.2,0.73-4.21,1.61-6.17c3.99-8.94,10.92-14.43,20.24-17.01c2.06-0.57,4.2-0.9,6.33-1.18
			c2.3-0.3,3.49-1.25,2.74-3.72c-2.25-7.48-7.13-12.51-14.44-15.09c-2.8-0.99-4.67,0.19-5.22,3.23c-0.33,1.85-0.63,3.71-1.16,5.51
			c-3.24,10.99-10.01,18.88-20.82,22.96c-7.78,2.94-14.74,1.54-20.66-4.5c-9.74-9.94-6.47-22.83,1.88-31.68
			c3.08-3.26,6.82-3.74,9.37-1.8c2.85,2.17,2.73,5.7-0.35,9.96c-0.31,0.43-0.72,0.8-1.04,1.23c-4.68,6.18-4.98,10.53-0.98,14.25
			c3.36,3.12,8.45,2.4,13.81-1.96c6.98-5.68,9.87-16.36,6.74-24.88c-3.45-9.38-12.84-15.62-22.57-15.03
			c-9.27,0.57-17.57,7.22-20.07,16.12c-0.96,3.41-0.73,6.93-0.73,10.41c-0.01,31.15,0,62.29-0.02,93.44c0,2.68,0.05,5.39-0.3,8.04
			c-0.47,3.51-2.3,6.2-6.2,6.16c-3.52-0.03-5.25-2.62-5.74-5.73c-0.5-3.16-0.61-6.41-0.61-9.61c-0.04-31.42-0.02-62.83-0.03-94.25
			c0-4.56,0.11-9.12-2.41-13.28c-4.76-7.84-14.07-12.43-22.55-10.97c-10.12,1.74-17.42,9.07-19.12,19.18
			c-1.42,8.5,3.19,17.88,11.05,22.5c4.24,2.49,7.47,2.43,10.38-0.2c3.07-2.76,3.84-6.89,1.67-11.04c-1.1-2.11-2.8-3.9-4.27-5.82
			c-1.95-2.56-2.99-5.2-0.5-7.97c2.07-2.3,5.57-2.33,8.74,0.15c4.83,3.79,7.99,8.77,8.83,14.87c1.1,7.96-0.78,15.12-7.58,20.01
			c-7,5.04-14.44,4.87-22.04,0.94c-8.91-4.61-14.25-11.99-17.26-21.3c-0.66-2.04-1.06-4.16-1.6-6.24c-0.69-2.66-2.52-3.38-4.93-2.58
			c-6.82,2.27-11.32,6.99-13.82,13.63c-0.9,2.39-0.29,4.23,2.48,4.87c2.35,0.54,4.74,0.99,7.06,1.64
			c8.17,2.31,14.37,7.13,18.22,14.74c0.96,1.9,1.69,3.96,2.18,6.03c0.74,3.12,0.24,6.06-3.09,7.42c-3.32,1.36-5.71-0.21-7.33-3.12
			c-0.91-1.64-1.6-3.4-2.52-5.04c-4.42-7.86-12.99-10.92-21.38-7.69c-15.56,6-18.69,26.73-5.69,37.64
			c11.88,9.96,28.27,10.47,40.96,1.3c1.95-1.41,3.88-2.9,6.02-3.96c2.11-1.05,4.23-0.45,5.88,1.27c1.86,1.94,2.26,4.2,1.06,6.66
			c-0.85,1.74-2.33,2.9-3.78,4.11c-17.33,14.47-42.16,13.89-58.92-1.4c-0.79-0.72-1.5-1.55-2.33-2.22
			c-3.41-2.72-5.49-2.36-7.69,1.51c-2.76,4.86-2.41,9.79,0.18,14.61c2.73,5.08,4.39,5.31,8.96,1.34c0.81-0.7,1.55-1.51,2.44-2.09
			c2.2-1.45,4.54-1.83,6.68,0.03c2.03,1.76,2.66,4.09,1.53,6.56c-1,2.19-2.43,4.18-3.48,6.34c-4.16,8.56-2.54,16.86,4.38,23
			c0.38-0.34,0.98-0.61,1.1-1.01c2.69-9.84,9.15-13.53,19.21-13.22c15.29,0.48,30.61,0.22,45.91,0.08
			c6.19-0.06,11.52,1.13,15.93,6.02c3.38,3.75,12.88,3.92,15.88,0.25c4.24-5.19,9.57-6.32,15.75-6.27
			c15.3,0.12,30.61,0.01,45.91,0.04C638.79,1017.35,641.39,1019.2,645.84,1032.1z M558.61,1119.09
			c22.57-1.3,42.63-11.51,55.31-34.16c3.49-6.24,2.71-7.44-4.26-7.61c-6.16-0.16-12.34,0.25-18.48-0.16
			c-12.51-0.85-21.74-6.77-26.94-18.49c-1.79-4.03-2.1-8.23-2.24-12.55c-0.19-5.86-1.27-7.28-5.03-7.48
			c-3.91-0.21-5.24,1.23-6.08,6.62c-0.16,1.06-0.24,2.13-0.41,3.19c-3.08,19-14.3,28.66-33.47,28.83
			c-5.62,0.05-11.26-0.13-16.87,0.13c-4.15,0.19-4.81,1.39-3.37,5.04c0.49,1.24,1.14,2.43,1.87,3.55
			C512.09,1106.74,530.67,1118.59,558.61,1119.09z M603.51,1029.06c0,0.01,0,0.01,0,0.02c-7.77,0-15.55-0.16-23.32,0.06
			c-5.13,0.14-6.05,1.15-6.34,6.21c-0.21,3.74-0.21,7.51,0.01,11.25c0.6,10.33,6.55,17.12,16.76,18.47
			c8.24,1.09,16.64,1.06,24.88,0.07c10.83-1.3,17-8.6,17.42-19.62c0.11-2.94,0.14-5.9,0-8.85c-0.3-6.35-1.26-7.41-7.69-7.58
			C617.99,1028.92,610.75,1029.06,603.51,1029.06z M508.59,1065.37c0-0.02,0-0.04,0-0.06c4.27,0,8.59,0.4,12.81-0.08
			c8.87-1.01,14.76-6.22,16.24-14.25c1.02-5.54,0.57-11.19,0.35-16.8c-0.12-3.18-1.86-4.98-5.06-5c-16.03-0.05-32.07-0.06-48.1-0.03
			c-3.96,0.01-5.84,2.21-5.8,6.07c0.03,3.47,0.17,6.94,0.26,10.41c0.3,11.31,6.77,18.49,18.1,19.68
			C501.07,1065.7,504.85,1065.37,508.59,1065.37z"/>
		<path class="st0" d="M541.3,982.88c-0.53,8.22-2.97,15.76-7.88,22.39c-0.93,1.26-2.18,2.37-3.5,3.24c-1.93,1.27-4.06,1.29-6-0.13
			c-2.21-1.62-2.92-3.9-1.92-6.37c0.79-1.96,2.13-3.68,3.18-5.54c6.48-11.5,4.21-24.73-5.69-33.44c-1.59-1.4-3.4-2.69-4.6-4.38
			c-1.53-2.14-1.32-4.61,0.42-6.67c1.54-1.83,3.63-2.26,5.82-1.45c1.48,0.55,2.97,1.26,4.23,2.21
			C535.4,960.26,540.37,970.51,541.3,982.88z"/>
		<path class="st0" d="M571.66,982.26c-0.23-11.23,4.39-20.27,12.66-27.57c1.79-1.58,3.91-2.85,6.05-3.92
			c2.74-1.38,5.32-0.65,7.17,1.74c1.99,2.56,1.28,5.07-0.81,7.22c-1.12,1.14-2.46,2.07-3.69,3.1c-10.4,8.71-12.68,22.25-5.72,34.05
			c0.82,1.39,1.78,2.69,2.54,4.1c1.48,2.73,1.08,5.23-1.39,7.15c-2.47,1.92-5.02,1.57-7.4-0.25c-1.95-1.49-3.34-3.46-4.57-5.56
			C573.02,996.38,571.58,990.47,571.66,982.26z"/>
		<path class="st0" d="M554.93,1103.26c-2.38-0.31-4.84-0.33-7.11-1c-3.11-0.93-4.98-3.29-4.75-6.63c0.25-3.59,3.15-3.89,5.9-4.01
			c2.67-0.12,5.36-0.13,8.03-0.1c5.09,0.06,9.56-1.11,12.49-5.75c0.87-1.38,2.05-2.48,3.6-3.09c2.09-0.83,4.31-1.07,6.17,0.25
			c2.11,1.5,1.54,3.8,0.97,5.9c-1.7,6.23-6.05,10-11.86,12.15C564.08,1102.56,559.57,1103.3,554.93,1103.26z"/>
		<path class="st0" d="M509.03,1034.79c-0.64,0-1.26,0.06-1.88,0.16c1.33,1.3,2.15,3.11,2.15,5.11c0,3.96-3.21,7.16-7.16,7.16
			c-2.15,0-4.08-0.95-5.39-2.46c-0.17,0.83-0.27,1.69-0.27,2.57c0,6.93,5.62,12.55,12.55,12.55c6.93,0,12.55-5.62,12.55-12.55
			S515.96,1034.79,509.03,1034.79z"/>
		<path class="st0" d="M603.29,1034.79c0.64,0,1.26,0.06,1.88,0.16c-1.33,1.3-2.15,3.11-2.15,5.11c0,3.96,3.21,7.16,7.16,7.16
			c2.15,0,4.08-0.95,5.39-2.46c0.17,0.83,0.27,1.69,0.27,2.57c0,6.93-5.62,12.55-12.55,12.55c-6.93,0-12.55-5.62-12.55-12.55
			S596.36,1034.79,603.29,1034.79z"/>
	</g>
	<rect x="722.06" y="832.09" class="st0" width="8.42" height="335.82"/>
	<g>
		<g>
			<g>
				<path class="st0" d="M776.92,1030.47v-20.1h38.67v-13.05h-38.67v-20.1h38.67v-13.05h-38.67v-20.1h48.72
					c6.86,0,10.05,3.19,10.05,10.05v22.1c0,6.56-3.3,9.85-10.08,10.05v2c6.78,0.2,10.08,3.49,10.08,10.05v22.1
					c0,6.86-3.19,10.05-10.05,10.05H776.92z"/>
				<path class="st0" d="M861.05,1030.47c-6.86,0-10.05-3.19-10.05-10.05v-22.1c0-6.56,3.3-9.85,10.08-10.05v-2
					c-6.78-0.2-10.08-3.49-10.08-10.05v-22.1c0-6.86,3.19-10.05,10.05-10.05h48.72v20.1H871.1v13.05h38.67v20.1H871.1v13.05h38.67
					v20.1H861.05z"/>
				<path class="st0" d="M935.13,1030.47c-6.86,0-10.05-3.19-10.05-10.05v-76.34h20.1v66.29h38.67v20.1H935.13z"/>
				<rect x="999.16" y="944.08" class="st0" width="20.1" height="86.39"/>
				<path class="st0" d="M1044.61,1030.47c-6.86,0-10.05-3.19-10.05-10.05v-22.1c0-6.56,3.3-9.85,10.08-10.05v-2
					c-6.78-0.2-10.08-3.49-10.08-10.05v-22.1c0-6.86,3.19-10.05,10.05-10.05h48.72v20.1h-38.67v13.05h38.67v20.1h-38.67v13.05h38.67
					v20.1H1044.61z"/>
				<polygon class="st0" points="1125.05,1030.47 1108.85,944.08 1128.88,944.08 1137.15,998.47 1139.13,998.47 1147.18,944.08 
					1167.21,944.08 1151.01,1030.47 				"/>
				<rect x="1182.72" y="944.08" class="st0" width="20.1" height="86.39"/>
				<path class="st0" d="M1256.8,1030.47v-66.29h-18.57v66.29h-20.1v-76.34c0-6.86,3.19-10.05,10.05-10.05h38.67
					c6.86,0,10.05,3.19,10.05,10.05v76.34H1256.8z"/>
				<polygon class="st1" points="1308.78,1030.47 1308.78,964.18 1292.21,964.18 1292.21,944.08 1345.45,944.08 1345.45,964.18 
					1328.88,964.18 1328.88,1030.47 				"/>
				<path class="st1" d="M1370.81,1030.47c-6.86,0-10.05-3.19-10.05-10.05v-22.1c0-6.56,3.3-9.85,10.08-10.05v-2
					c-6.78-0.2-10.08-3.49-10.08-10.05v-22.1c0-6.86,3.19-10.05,10.05-10.05h48.72v20.1h-38.67v13.05h38.67v20.1h-38.67v13.05h38.67
					v20.1H1370.81z"/>
				<path class="st1" d="M1444.88,1030.47c-6.85,0-10.05-3.19-10.05-10.05v-66.29c0-6.86,3.19-10.05,10.05-10.05h48.72v20.1h-38.67
					v46.19h38.67v20.1H1444.88z"/>
				<polygon class="st1" points="1547.58,1030.47 1547.58,997.32 1529.01,997.32 1529.01,1030.47 1508.92,1030.47 1508.92,944.08 
					1529.01,944.08 1529.01,977.23 1547.58,977.23 1547.58,944.08 1567.68,944.08 1567.68,1030.47 				"/>
			</g>
		</g>
		<g>
			<g>
				<g>
					<path class="st0" d="M777.02,1056.41c0.73-1.37,1.74-2.42,3.04-3.17c1.29-0.74,2.77-1.12,4.43-1.12c2.18,0,3.97,0.54,5.38,1.62
						c1.41,1.08,2.32,2.54,2.73,4.39h-2.42c-0.3-1.27-0.95-2.27-1.96-2.99c-1-0.72-2.25-1.08-3.73-1.08c-1.19,0-2.25,0.27-3.2,0.81
						c-0.95,0.54-1.7,1.34-2.25,2.41c-0.55,1.07-0.82,2.37-0.82,3.93s0.27,2.87,0.82,3.94c0.55,1.08,1.3,1.89,2.25,2.42
						c0.95,0.54,2.01,0.81,3.2,0.81c1.49,0,2.73-0.36,3.73-1.08c1-0.72,1.65-1.73,1.96-3.02h2.42c-0.41,1.81-1.33,3.26-2.75,4.36
						c-1.42,1.1-3.21,1.65-5.36,1.65c-1.66,0-3.13-0.37-4.43-1.12c-1.29-0.74-2.31-1.8-3.04-3.17c-0.73-1.37-1.1-2.97-1.1-4.8
						C775.92,1059.38,776.29,1057.78,777.02,1056.41z"/>
					<path class="st0" d="M812.05,1052.39v17.64h-2.26v-3.1c-0.52,1.1-1.31,1.94-2.39,2.52c-1.08,0.58-2.28,0.87-3.62,0.87
						c-2.11,0-3.83-0.65-5.17-1.95c-1.34-1.3-2-3.19-2-5.67v-10.31h2.23v10.05c0,1.92,0.48,3.38,1.44,4.4
						c0.96,1.01,2.27,1.52,3.93,1.52c1.7,0,3.06-0.54,4.07-1.62c1.01-1.08,1.52-2.66,1.52-4.75v-9.6H812.05z"/>
					<path class="st0" d="M821.76,1052.97c1.02-0.6,2.28-0.91,3.76-0.91v2.36h-0.61c-1.64,0-2.95,0.44-3.94,1.33
						c-0.99,0.88-1.49,2.36-1.49,4.43v9.86h-2.26v-17.64h2.26v3.13C819.98,1054.43,820.74,1053.58,821.76,1052.97z"/>
					<path class="st0" d="M828.97,1056.41c0.72-1.37,1.72-2.42,3.01-3.17c1.28-0.74,2.73-1.12,4.35-1.12c1.68,0,3.13,0.39,4.35,1.16
						c1.22,0.78,2.1,1.77,2.63,2.97v-3.88h2.26v17.64h-2.26v-3.91c-0.56,1.21-1.45,2.2-2.67,2.99c-1.22,0.79-2.67,1.18-4.35,1.18
						c-1.59,0-3.03-0.38-4.31-1.13c-1.28-0.75-2.28-1.82-3.01-3.2c-0.72-1.38-1.08-2.97-1.08-4.78
						C827.89,1059.37,828.25,1057.78,828.97,1056.41z M842.43,1057.46c-0.58-1.08-1.37-1.91-2.38-2.49c-1-0.58-2.11-0.87-3.31-0.87
						c-1.25,0-2.37,0.28-3.36,0.84c-0.99,0.56-1.77,1.37-2.34,2.44c-0.57,1.07-0.86,2.33-0.86,3.8c0,1.44,0.29,2.71,0.86,3.8
						c0.57,1.09,1.35,1.92,2.34,2.49c0.99,0.57,2.11,0.86,3.36,0.86c1.21,0,2.31-0.29,3.31-0.87c1-0.58,1.79-1.41,2.38-2.49
						c0.58-1.08,0.87-2.33,0.87-3.75C843.3,1059.79,843.01,1058.54,842.43,1057.46z"/>
					<path class="st0" d="M853.67,1054.3v10.96c0,1.08,0.2,1.82,0.61,2.23s1.13,0.61,2.17,0.61h2.07v1.94h-2.42
						c-1.59,0-2.78-0.37-3.55-1.12c-0.78-0.74-1.16-1.97-1.16-3.67v-10.96h-2.46v-1.91h2.46v-4.43h2.29v4.43h4.85v1.91H853.67z"/>
					<path class="st0" d="M878.14,1062.08H863.5c0.06,1.34,0.39,2.48,0.97,3.43c0.58,0.95,1.35,1.66,2.29,2.15
						c0.95,0.48,1.98,0.73,3.1,0.73c1.46,0,2.7-0.36,3.7-1.07c1-0.71,1.66-1.67,1.99-2.88h2.39c-0.43,1.72-1.35,3.13-2.76,4.22
						c-1.41,1.09-3.18,1.63-5.32,1.63c-1.66,0-3.15-0.37-4.46-1.12c-1.31-0.74-2.34-1.8-3.09-3.17c-0.74-1.37-1.11-2.97-1.11-4.8
						c0-1.83,0.37-3.44,1.1-4.82c0.73-1.38,1.76-2.43,3.07-3.17c1.31-0.73,2.81-1.1,4.49-1.1s3.15,0.37,4.41,1.1
						c1.26,0.73,2.23,1.72,2.91,2.96c0.68,1.24,1.02,2.61,1.02,4.12C878.2,1061.08,878.18,1061.68,878.14,1062.08z M875.12,1056.88
						c-0.55-0.93-1.3-1.63-2.25-2.1c-0.95-0.47-1.98-0.71-3.1-0.71c-1.68,0-3.11,0.54-4.3,1.62c-1.18,1.08-1.84,2.6-1.97,4.56h12.41
						C875.93,1058.93,875.66,1057.81,875.12,1056.88z"/>
					<path class="st0" d="M882.4,1056.41c0.73-1.37,1.74-2.42,3.02-3.17c1.28-0.74,2.73-1.12,4.35-1.12c1.55,0,2.95,0.38,4.2,1.13
						c1.25,0.75,2.17,1.73,2.75,2.94v-10.08h2.26v23.91h-2.26v-3.94c-0.54,1.23-1.42,2.24-2.65,3.02c-1.23,0.79-2.67,1.18-4.33,1.18
						c-1.62,0-3.06-0.38-4.35-1.13c-1.28-0.75-2.28-1.82-3.01-3.2c-0.72-1.38-1.08-2.97-1.08-4.78
						C881.3,1059.37,881.67,1057.78,882.4,1056.41z M895.85,1057.46c-0.58-1.08-1.37-1.91-2.38-2.49c-1-0.58-2.11-0.87-3.31-0.87
						c-1.25,0-2.37,0.28-3.36,0.84c-0.99,0.56-1.77,1.37-2.34,2.44c-0.57,1.07-0.86,2.33-0.86,3.8c0,1.44,0.29,2.71,0.86,3.8
						c0.57,1.09,1.35,1.92,2.34,2.49c0.99,0.57,2.11,0.86,3.36,0.86c1.21,0,2.31-0.29,3.31-0.87c1-0.58,1.79-1.41,2.38-2.49
						c0.58-1.08,0.87-2.33,0.87-3.75C896.72,1059.79,896.43,1058.54,895.85,1057.46z"/>
					<path class="st0" d="M913.05,1056.41c0.72-1.37,1.72-2.42,3.01-3.17c1.28-0.74,2.73-1.12,4.35-1.12c1.68,0,3.13,0.39,4.35,1.16
						c1.22,0.78,2.1,1.77,2.63,2.97v-3.88h2.26v17.64h-2.26v-3.91c-0.56,1.21-1.45,2.2-2.67,2.99c-1.22,0.79-2.67,1.18-4.35,1.18
						c-1.59,0-3.03-0.38-4.31-1.13c-1.28-0.75-2.28-1.82-3.01-3.2c-0.72-1.38-1.08-2.97-1.08-4.78
						C911.97,1059.37,912.33,1057.78,913.05,1056.41z M926.51,1057.46c-0.58-1.08-1.37-1.91-2.38-2.49c-1-0.58-2.11-0.87-3.31-0.87
						c-1.25,0-2.37,0.28-3.36,0.84c-0.99,0.56-1.77,1.37-2.34,2.44c-0.57,1.07-0.86,2.33-0.86,3.8c0,1.44,0.29,2.71,0.86,3.8
						c0.57,1.09,1.35,1.92,2.34,2.49c0.99,0.57,2.11,0.86,3.36,0.86c1.21,0,2.31-0.29,3.31-0.87c1-0.58,1.79-1.41,2.38-2.49
						c0.58-1.08,0.87-2.33,0.87-3.75C927.38,1059.79,927.09,1058.54,926.51,1057.46z"/>
					<path class="st0" d="M948.26,1054.02c1.34,1.3,2,3.19,2,5.67v10.34h-2.23v-10.08c0-1.92-0.48-3.38-1.44-4.4
						c-0.96-1.01-2.27-1.52-3.93-1.52c-1.7,0-3.06,0.54-4.07,1.62c-1.01,1.08-1.52,2.66-1.52,4.75v9.63h-2.26v-17.64h2.26v3.01
						c0.56-1.08,1.37-1.9,2.42-2.47c1.06-0.57,2.25-0.86,3.59-0.86C945.2,1052.07,946.92,1052.72,948.26,1054.02z"/>
					<path class="st0" d="M955.34,1056.41c0.73-1.37,1.74-2.42,3.02-3.17c1.28-0.74,2.73-1.12,4.35-1.12c1.55,0,2.95,0.38,4.2,1.13
						c1.25,0.75,2.17,1.73,2.75,2.94v-10.08h2.26v23.91h-2.26v-3.94c-0.54,1.23-1.42,2.24-2.65,3.02c-1.23,0.79-2.67,1.18-4.33,1.18
						c-1.62,0-3.06-0.38-4.35-1.13c-1.28-0.75-2.28-1.82-3.01-3.2c-0.72-1.38-1.08-2.97-1.08-4.78
						C954.24,1059.37,954.6,1057.78,955.34,1056.41z M968.78,1057.46c-0.58-1.08-1.37-1.91-2.38-2.49c-1-0.58-2.11-0.87-3.31-0.87
						c-1.25,0-2.37,0.28-3.36,0.84c-0.99,0.56-1.77,1.37-2.34,2.44c-0.57,1.07-0.86,2.33-0.86,3.8c0,1.44,0.29,2.71,0.86,3.8
						c0.57,1.09,1.35,1.92,2.34,2.49c0.99,0.57,2.11,0.86,3.36,0.86c1.21,0,2.31-0.29,3.31-0.87c1-0.58,1.79-1.41,2.38-2.49
						c0.58-1.08,0.87-2.33,0.87-3.75C969.65,1059.79,969.36,1058.54,968.78,1057.46z"/>
					<path class="st0" d="M987.05,1068.89c-1.28-0.94-2-2.21-2.15-3.83h2.33c0.11,0.99,0.58,1.79,1.41,2.41
						c0.83,0.61,1.94,0.92,3.34,0.92c1.23,0,2.19-0.29,2.89-0.87c0.7-0.58,1.05-1.3,1.05-2.16c0-0.6-0.19-1.1-0.58-1.49
						c-0.39-0.39-0.88-0.69-1.47-0.92c-0.59-0.23-1.4-0.47-2.41-0.73c-1.31-0.34-2.38-0.69-3.2-1.03c-0.82-0.34-1.51-0.86-2.08-1.54
						c-0.57-0.68-0.86-1.59-0.86-2.73c0-0.86,0.26-1.66,0.78-2.39c0.52-0.73,1.25-1.31,2.2-1.74c0.95-0.43,2.02-0.65,3.23-0.65
						c1.9,0,3.43,0.48,4.59,1.44c1.16,0.96,1.79,2.28,1.87,3.96h-2.26c-0.06-1.03-0.47-1.87-1.21-2.51
						c-0.74-0.63-1.76-0.95-3.05-0.95c-1.14,0-2.07,0.27-2.78,0.81c-0.71,0.54-1.07,1.21-1.07,2c0,0.69,0.21,1.26,0.63,1.7
						c0.42,0.44,0.94,0.79,1.57,1.03c0.62,0.25,1.46,0.52,2.52,0.82c1.27,0.35,2.28,0.68,3.04,1c0.75,0.32,1.4,0.8,1.94,1.42
						c0.54,0.63,0.82,1.45,0.84,2.49c0,0.95-0.26,1.79-0.78,2.54c-0.52,0.74-1.24,1.33-2.17,1.76c-0.93,0.43-1.99,0.65-3.2,0.65
						C989.99,1070.29,988.34,1069.82,987.05,1068.89z"/>
					<path class="st0" d="M1028.48,1054.02c1.3,1.3,1.96,3.19,1.96,5.67v10.34h-2.23v-10.08c0-1.92-0.46-3.38-1.39-4.4
						c-0.93-1.01-2.19-1.52-3.78-1.52c-1.66,0-2.98,0.55-3.97,1.65c-0.99,1.1-1.49,2.69-1.49,4.78v9.57h-2.23v-10.08
						c0-1.92-0.46-3.38-1.39-4.4c-0.93-1.01-2.2-1.52-3.81-1.52c-1.66,0-2.98,0.55-3.97,1.65c-0.99,1.1-1.49,2.69-1.49,4.78v9.57
						h-2.26v-17.64h2.26v3.04c0.56-1.1,1.36-1.93,2.39-2.5c1.03-0.57,2.19-0.86,3.46-0.86c1.53,0,2.87,0.37,4.02,1.1
						c1.15,0.73,1.99,1.81,2.5,3.23c0.47-1.4,1.29-2.47,2.44-3.22c1.15-0.74,2.46-1.12,3.93-1.12
						C1025.49,1052.07,1027.18,1052.72,1028.48,1054.02z"/>
					<path class="st0" d="M1035.49,1056.41c0.72-1.37,1.72-2.42,3.01-3.17c1.28-0.74,2.73-1.12,4.35-1.12
						c1.68,0,3.13,0.39,4.35,1.16c1.22,0.78,2.1,1.77,2.63,2.97v-3.88h2.26v17.64h-2.26v-3.91c-0.56,1.21-1.45,2.2-2.67,2.99
						c-1.22,0.79-2.67,1.18-4.35,1.18c-1.59,0-3.03-0.38-4.31-1.13c-1.28-0.75-2.28-1.82-3.01-3.2c-0.72-1.38-1.08-2.97-1.08-4.78
						C1034.41,1059.37,1034.77,1057.78,1035.49,1056.41z M1048.95,1057.46c-0.58-1.08-1.37-1.91-2.38-2.49
						c-1-0.58-2.11-0.87-3.31-0.87c-1.25,0-2.37,0.28-3.36,0.84c-0.99,0.56-1.77,1.37-2.34,2.44c-0.57,1.07-0.86,2.33-0.86,3.8
						c0,1.44,0.29,2.71,0.86,3.8c0.57,1.09,1.35,1.92,2.34,2.49c0.99,0.57,2.11,0.86,3.36,0.86c1.21,0,2.31-0.29,3.31-0.87
						c1-0.58,1.79-1.41,2.38-2.49c0.58-1.08,0.87-2.33,0.87-3.75C1049.83,1059.79,1049.53,1058.54,1048.95,1057.46z"/>
					<path class="st0" d="M1061.8,1052.97c1.02-0.6,2.28-0.91,3.76-0.91v2.36h-0.61c-1.64,0-2.95,0.44-3.94,1.33
						c-0.99,0.88-1.49,2.36-1.49,4.43v9.86h-2.26v-17.64h2.26v3.13C1060.02,1054.43,1060.78,1053.58,1061.8,1052.97z"/>
					<path class="st0" d="M1071.9,1054.3v10.96c0,1.08,0.2,1.82,0.61,2.23c0.41,0.41,1.13,0.61,2.16,0.61h2.07v1.94h-2.42
						c-1.6,0-2.78-0.37-3.55-1.12c-0.78-0.74-1.16-1.97-1.16-3.67v-10.96h-2.46v-1.91h2.46v-4.43h2.29v4.43h4.85v1.91H1071.9z"/>
					<path class="st0" d="M1082.72,1046.12v23.91h-2.26v-23.91H1082.72z"/>
					<path class="st0" d="M1102.4,1052.39l-10.47,25.95h-2.36l3.43-8.4l-7.24-17.55h2.49l6.01,15.06l5.82-15.06H1102.4z"/>
					<path class="st0" d="M1137.59,1052.39l-5.53,17.64h-2.26l-4.88-14.8l-4.88,14.8h-2.29l-5.53-17.64h2.29l4.4,15.35l4.94-15.35
						h2.26l4.88,15.38l4.36-15.38H1137.59z"/>
					<path class="st0" d="M1143.91,1069.18c-1.33-0.74-2.37-1.8-3.13-3.17c-0.77-1.37-1.15-2.97-1.15-4.8c0-1.83,0.39-3.43,1.16-4.8
						s1.83-2.42,3.17-3.17c1.34-0.74,2.83-1.12,4.49-1.12c1.66,0,3.16,0.37,4.51,1.12c1.35,0.74,2.4,1.8,3.17,3.17
						c0.77,1.37,1.15,2.97,1.15,4.8c0,1.81-0.39,3.4-1.16,4.78c-0.78,1.38-1.84,2.44-3.2,3.18c-1.36,0.74-2.86,1.12-4.52,1.12
						S1145.23,1069.92,1143.91,1069.18z M1151.62,1067.53c0.99-0.53,1.79-1.33,2.41-2.39c0.61-1.07,0.92-2.37,0.92-3.93
						s-0.3-2.86-0.9-3.93c-0.6-1.07-1.4-1.86-2.39-2.39c-0.99-0.53-2.07-0.79-3.23-0.79c-1.16,0-2.24,0.26-3.23,0.79
						c-0.99,0.53-1.78,1.33-2.38,2.39c-0.59,1.07-0.89,2.37-0.89,3.93s0.3,2.86,0.89,3.93c0.59,1.07,1.38,1.86,2.36,2.39
						c0.98,0.53,2.05,0.79,3.22,0.79C1149.55,1068.32,1150.63,1068.06,1151.62,1067.53z"/>
					<path class="st0" d="M1165.95,1052.97c1.02-0.6,2.28-0.91,3.76-0.91v2.36h-0.61c-1.64,0-2.95,0.44-3.94,1.33
						c-0.99,0.88-1.49,2.36-1.49,4.43v9.86h-2.26v-17.64h2.26v3.13C1164.17,1054.43,1164.93,1053.58,1165.95,1052.97z"/>
					<path class="st0" d="M1182.64,1070.03l-7.27-7.92v7.92h-2.26v-23.91h2.26v14.15l7.11-7.89h3.17l-8.37,8.79l8.43,8.85H1182.64z"
						/>
					<path class="st0" d="M1197.54,1056.41c0.73-1.37,1.74-2.42,3.02-3.17c1.28-0.74,2.73-1.12,4.35-1.12c1.55,0,2.95,0.38,4.2,1.13
						c1.25,0.75,2.16,1.73,2.75,2.94v-10.08h2.26v23.91h-2.26v-3.94c-0.54,1.23-1.42,2.24-2.65,3.02s-2.67,1.18-4.33,1.18
						c-1.62,0-3.06-0.38-4.35-1.13c-1.28-0.75-2.28-1.82-3.01-3.2c-0.72-1.38-1.08-2.97-1.08-4.78
						C1196.44,1059.37,1196.8,1057.78,1197.54,1056.41z M1210.98,1057.46c-0.58-1.08-1.37-1.91-2.37-2.49
						c-1-0.58-2.11-0.87-3.31-0.87c-1.25,0-2.37,0.28-3.36,0.84c-0.99,0.56-1.77,1.37-2.34,2.44c-0.57,1.07-0.86,2.33-0.86,3.8
						c0,1.44,0.29,2.71,0.86,3.8c0.57,1.09,1.35,1.92,2.34,2.49c0.99,0.57,2.11,0.86,3.36,0.86c1.21,0,2.31-0.29,3.31-0.87
						c1-0.58,1.79-1.41,2.37-2.49c0.58-1.08,0.87-2.33,0.87-3.75C1211.85,1059.79,1211.56,1058.54,1210.98,1057.46z"/>
					<path class="st0" d="M1222.53,1069.18c-1.33-0.74-2.37-1.8-3.14-3.17c-0.77-1.37-1.15-2.97-1.15-4.8c0-1.83,0.39-3.43,1.16-4.8
						s1.83-2.42,3.17-3.17c1.34-0.74,2.83-1.12,4.49-1.12c1.66,0,3.16,0.37,4.51,1.12c1.35,0.74,2.4,1.8,3.17,3.17
						c0.77,1.37,1.15,2.97,1.15,4.8c0,1.81-0.39,3.4-1.16,4.78c-0.78,1.38-1.84,2.44-3.2,3.18c-1.36,0.74-2.86,1.12-4.52,1.12
						S1223.86,1069.92,1222.53,1069.18z M1230.24,1067.53c0.99-0.53,1.79-1.33,2.41-2.39c0.61-1.07,0.92-2.37,0.92-3.93
						s-0.3-2.86-0.9-3.93c-0.6-1.07-1.4-1.86-2.39-2.39c-0.99-0.53-2.07-0.79-3.23-0.79c-1.16,0-2.24,0.26-3.23,0.79
						c-0.99,0.53-1.78,1.33-2.38,2.39c-0.59,1.07-0.89,2.37-0.89,3.93s0.3,2.86,0.89,3.93c0.59,1.07,1.38,1.86,2.36,2.39
						c0.98,0.53,2.05,0.79,3.22,0.79C1228.17,1068.32,1229.25,1068.06,1230.24,1067.53z"/>
					<path class="st0" d="M1253.47,1054.02c1.34,1.3,2,3.19,2,5.67v10.34h-2.23v-10.08c0-1.92-0.48-3.38-1.44-4.4
						c-0.96-1.01-2.27-1.52-3.93-1.52c-1.7,0-3.06,0.54-4.07,1.62c-1.01,1.08-1.52,2.66-1.52,4.75v9.63h-2.26v-17.64h2.26v3.01
						c0.56-1.08,1.37-1.9,2.42-2.47c1.06-0.57,2.25-0.86,3.59-0.86C1250.42,1052.07,1252.14,1052.72,1253.47,1054.02z"/>
					<path class="st0" d="M1276.39,1062.08h-14.64c0.06,1.34,0.39,2.48,0.97,3.43c0.58,0.95,1.35,1.66,2.29,2.15
						c0.95,0.48,1.98,0.73,3.1,0.73c1.46,0,2.7-0.36,3.7-1.07c1-0.71,1.66-1.67,1.99-2.88h2.39c-0.43,1.72-1.35,3.13-2.76,4.22
						c-1.41,1.09-3.18,1.63-5.32,1.63c-1.66,0-3.15-0.37-4.46-1.12c-1.31-0.74-2.34-1.8-3.09-3.17c-0.74-1.37-1.11-2.97-1.11-4.8
						c0-1.83,0.37-3.44,1.1-4.82c0.73-1.38,1.76-2.43,3.07-3.17c1.31-0.73,2.81-1.1,4.49-1.1c1.68,0,3.15,0.37,4.41,1.1
						s2.23,1.72,2.91,2.96c0.68,1.24,1.02,2.61,1.02,4.12C1276.45,1061.08,1276.43,1061.68,1276.39,1062.08z M1273.36,1056.88
						c-0.55-0.93-1.3-1.63-2.25-2.1c-0.95-0.47-1.98-0.71-3.1-0.71c-1.68,0-3.11,0.54-4.3,1.62c-1.18,1.08-1.84,2.6-1.97,4.56h12.41
						C1274.18,1058.93,1273.91,1057.81,1273.36,1056.88z"/>
				</g>
			</g>
			<rect x="1292.94" y="1061.19" class="st0" width="275.74" height="2.8"/>
		</g>
	</g>
</g>
</svg>
